<?xml version="1.0" encoding="utf-8"?>
<svg version="1.1" xmlns="http://www.w3.org/2000/svg"
	 viewBox="0 0 60 60">
	<path d="M8.6,47c-1.6,2.6-2.2,3-2.2,3H2.7l2-2.4c0,0,5.7-7,5.7-17.6S4.7,12.4,4.7,12.4l-2-2.4h3.7c0.8,0.9,1.4,1.7,2.2,3
	c1.9,3.1,4.8,9,4.8,17C13.3,38,10.4,43.9,8.6,47z"/>
	<path d="M8.4,10l2,2.4c0,0,5.7,7,5.7,17.6s-5.7,17.6-5.7,17.6l-2,2.4h3.2h14c2.4,0,7.7,0,13.6-2.4s12.5-7.3,17.7-16.9l0.3-0.7
	l-0.3-0.7C46.6,10.2,30.4,10,25.6,10h-14H8.4z M14.3,13h11.3c4.7,0,18.3-0.1,28,17C48.8,38.4,43,42.7,37.8,44.8
	C32.4,47,28,47,25.6,47H14.3c1.9-3.1,4.8-9,4.8-17C19.1,22,16.2,16.1,14.3,13z"/>
</svg>
